<svg preserveAspectRatio="none" width="100%" height="100%" overflow="visible" style="display: block;" viewBox="0 0 10 8" fill="none" xmlns="http://www.w3.org/2000/svg">
<g id="Vector">
<path d="M9.66605 3.4706L8.67256 1.80332C8.59985 1.68225 8.49765 1.58207 8.37575 1.51237C8.25385 1.44267 8.11631 1.40577 7.97629 1.4052H7.19629V1.28802C7.1963 1.11881 7.16327 0.951252 7.0991 0.794986C7.03492 0.63872 6.94087 0.496821 6.82234 0.377439C6.58272 0.135865 6.25828 0.000162733 5.92001 2.81554e-05H1.27677C1.02406 -0.00166429 0.776595 0.0729796 0.566051 0.214406C0.355508 0.355833 0.191465 0.557608 0.0949187 0.793908C0.0310393 0.950563 -0.00122149 1.11856 3.53598e-05 1.28802V5.50354C0.00029732 5.70152 0.0714491 5.8927 0.200318 6.04169C0.329187 6.19068 0.507045 6.28738 0.700963 6.31389C0.698793 6.35624 0.698793 6.39844 0.700963 6.44048C0.699309 6.64007 0.737512 6.83794 0.813279 7.02223C0.889046 7.20651 1.00082 7.37342 1.14189 7.51294C1.28032 7.65872 1.44603 7.77519 1.62936 7.85558C1.8127 7.93596 2.01 7.97866 2.2098 7.98118C2.60856 7.97752 2.99005 7.81603 3.27258 7.5313C3.55486 7.24701 3.71525 6.86178 3.71909 6.45883C3.72148 6.41997 3.72148 6.38099 3.71909 6.34212H6.28141C6.27902 6.38099 6.27902 6.41997 6.28141 6.45883C6.27969 6.6585 6.31786 6.85646 6.39363 7.04083C6.4694 7.22521 6.58121 7.39219 6.72234 7.53177C6.86088 7.67766 7.02673 7.79419 7.21024 7.87458C7.39374 7.95497 7.59122 7.9976 7.79117 8C8.18993 7.99634 8.57143 7.83485 8.85396 7.55012C9.13606 7.26576 9.29628 6.88053 9.3 6.47765C9.30241 6.43863 9.30241 6.3995 9.3 6.36048H9.65163C9.74337 6.35915 9.83101 6.32178 9.89602 6.25627C9.96103 6.19076 9.99832 6.10224 10 6.00942V4.65601C10 4.23719 9.88419 3.82684 9.66605 3.4706ZM3.0177 6.44001C3.01784 6.54758 2.99653 6.65407 2.95505 6.75312C2.91358 6.85217 2.85278 6.94174 2.7763 7.01647C2.62157 7.16524 2.41627 7.24818 2.20282 7.24818C1.98937 7.24818 1.78407 7.16524 1.62933 7.01647C1.55391 6.94033 1.49418 6.84979 1.45362 6.7501C1.41306 6.65042 1.39248 6.54357 1.39305 6.43577C1.39087 6.32446 1.41311 6.21405 1.45817 6.11248C1.51956 5.96518 1.62515 5.84095 1.75956 5.75624C1.89704 5.6643 2.05899 5.61702 2.22375 5.62071C2.38096 5.62071 2.53445 5.66777 2.66468 5.75624C2.79817 5.84236 2.90328 5.96613 2.967 6.11248C3.01258 6.21365 3.03677 6.32424 3.0363 6.43577L3.0177 6.44001ZM4.52653 4.09837H2.20561C2.08274 4.09824 1.9649 4.04893 1.87784 3.9612C1.79078 3.87347 1.74157 3.75445 1.74096 3.63013C1.74084 3.56847 1.75277 3.50739 1.77606 3.4504C1.79936 3.39342 1.83356 3.34166 1.8767 3.2981C1.91984 3.25454 1.97107 3.22004 2.02743 3.19658C2.0838 3.17313 2.1442 3.16118 2.20514 3.16143H4.52653C4.6494 3.16168 4.76719 3.21111 4.85416 3.29893C4.94113 3.38674 4.99022 3.50581 4.99072 3.63013C4.99078 3.69176 4.9788 3.75279 4.95548 3.80972C4.93216 3.86665 4.89795 3.91835 4.85481 3.96186C4.81168 4.00537 4.76047 4.03983 4.70413 4.06326C4.6478 4.08668 4.58744 4.09861 4.52653 4.09837ZM4.52653 2.48708H2.20561C2.08274 2.48696 1.9649 2.43764 1.87784 2.34991C1.79078 2.26218 1.74157 2.14316 1.74096 2.01884C1.7409 1.95722 1.75287 1.89619 1.77619 1.83926C1.79952 1.78233 1.83373 1.73062 1.87686 1.68711C1.92 1.6436 1.9712 1.60915 2.02754 1.58572C2.08388 1.56229 2.14424 1.55036 2.20514 1.55061H4.52653C4.64932 1.55086 4.76704 1.60022 4.854 1.68794C4.94095 1.77566 4.9901 1.89461 4.99072 2.01884C4.99078 2.08047 4.9788 2.1415 4.95548 2.19843C4.93216 2.25536 4.89795 2.30706 4.85481 2.35057C4.81168 2.39409 4.76047 2.42854 4.70413 2.45197C4.6478 2.47539 4.58744 2.48733 4.52653 2.48708ZM8.58884 6.44001C8.58892 6.54761 8.56754 6.65413 8.52598 6.75318C8.48442 6.85223 8.42354 6.94178 8.34698 7.01647C8.19227 7.1651 7.98707 7.24796 7.77373 7.24796C7.56039 7.24796 7.35519 7.1651 7.20047 7.01647C7.12497 6.94037 7.06516 6.84984 7.02452 6.75015C6.98388 6.65047 6.96321 6.5436 6.96373 6.43577C6.96176 6.26514 7.01573 6.09866 7.11722 5.96236C7.23164 5.80848 7.39582 5.69883 7.5814 5.65318H7.69768C7.71894 5.64806 7.74108 5.64806 7.76233 5.65318H7.85536C7.99629 5.66966 8.1307 5.72283 8.24512 5.80801C8.36001 5.89318 8.44977 6.00801 8.50512 6.14071C8.55117 6.24189 8.57489 6.35248 8.57489 6.46354L8.58884 6.44001Z" fill="var(--fill-0, #888888)"/>
<path d="M7.77257 5.61601C7.75116 5.61081 7.72885 5.61081 7.70745 5.61601H7.77257Z" fill="var(--fill-0, #888888)"/>
</g>
</svg>
