<svg preserveAspectRatio="none" width="100%" height="100%" overflow="visible" style="display: block;" viewBox="0 0 10 10" fill="none" xmlns="http://www.w3.org/2000/svg">
<path id="Vector" d="M5.00626 0C2.25282 0 0 2.25 0 5C0 7.75 2.25282 10 5.00626 10C6.38298 10 7.65957 9.4625 8.5607 8.55L7.65957 7.65C6.98373 8.325 6.04506 8.75 4.99374 8.75C2.91615 8.75 1.23905 7.075 1.23905 5C1.23905 2.925 2.91615 1.25 4.99374 1.25C6.03254 1.25 6.93367 1.7 7.60951 2.3875L6.24531 3.75H10V0L8.51064 1.4875C7.60951 0.5875 6.37046 0 4.99374 0H5.00626Z" fill="var(--fill-0, #888888)"/>
</svg>
